<mxfile host="app.diagrams.net" modified="2022-05-18T10:56:29.609Z" agent="5.0 (Windows)" etag="fp1l2SOaPE3Y7Up3J0FO" version="18.0.6" type="github">
  <diagram id="maX6PPkqGkgQO3d0mOUZ" name="New">
    <mxGraphModel dx="2519" dy="1326" grid="1" gridSize="10" guides="1" tooltips="1" connect="1" arrows="1" fold="1" page="1" pageScale="1" pageWidth="1169" pageHeight="827" math="1" shadow="0">
      <root>
        <mxCell id="a6acP2pozzWjvfzwrBKU-0" />
        <mxCell id="a6acP2pozzWjvfzwrBKU-1" parent="a6acP2pozzWjvfzwrBKU-0" />
        <mxCell id="Na1JPXhOpcZtYNCs6wXy-7" value="&lt;div&gt;&amp;nbsp;$$\omega$$&lt;br&gt;&lt;/div&gt;" style="edgeStyle=orthogonalEdgeStyle;rounded=0;orthogonalLoop=1;jettySize=auto;html=1;endArrow=none;endFill=0;fontSize=14;dashed=1;dashPattern=1 1;" edge="1" parent="a6acP2pozzWjvfzwrBKU-1">
          <mxGeometry x="1" y="-145" relative="1" as="geometry">
            <mxPoint x="682.3875000000003" y="209" as="sourcePoint" />
            <mxPoint x="682" y="209" as="targetPoint" />
            <mxPoint x="-10" as="offset" />
          </mxGeometry>
        </mxCell>
        <mxCell id="Na1JPXhOpcZtYNCs6wXy-5" value="&lt;div&gt;&lt;span style=&quot;font-size: 14px;&quot;&gt;fan speed:&lt;/span&gt;&lt;/div&gt;&lt;div&gt;&lt;span style=&quot;font-size: 14px;&quot;&gt;$$U_{fan2}$$&lt;br&gt;&lt;/span&gt;&lt;/div&gt;&lt;div&gt;&lt;span style=&quot;font-size: 14px;&quot;&gt;&lt;/span&gt;&lt;/div&gt;" style="edgeLabel;html=1;align=center;verticalAlign=middle;resizable=0;points=[];fontSize=14;" vertex="1" connectable="0" parent="a6acP2pozzWjvfzwrBKU-1">
          <mxGeometry x="139.6484746903443" y="509.04123587938693" as="geometry" />
        </mxCell>
        <mxCell id="Na1JPXhOpcZtYNCs6wXy-4" value="&lt;div&gt;Opening &lt;br&gt;&lt;/div&gt;&lt;div&gt;degree: &lt;br&gt;&lt;/div&gt;&lt;div&gt;$$ \Theta_1 $$&lt;/div&gt;" style="edgeLabel;html=1;align=center;verticalAlign=middle;resizable=0;points=[];fontSize=14;" vertex="1" connectable="0" parent="a6acP2pozzWjvfzwrBKU-1">
          <mxGeometry x="240.99588235294144" y="634.9975000000003" as="geometry">
            <mxPoint x="-6" y="6" as="offset" />
          </mxGeometry>
        </mxCell>
        <mxCell id="Na1JPXhOpcZtYNCs6wXy-1" value="&lt;div&gt;&lt;span style=&quot;font-size: 14px;&quot;&gt;Fan speed:&lt;/span&gt;&lt;/div&gt;&lt;div&gt;&lt;span style=&quot;font-size: 14px;&quot;&gt;$$U_{fan1}$$&lt;br&gt;&lt;/span&gt;&lt;/div&gt;&lt;div&gt;&lt;span style=&quot;font-size: 14px;&quot;&gt;&lt;/span&gt;&lt;/div&gt;" style="edgeLabel;html=1;align=center;verticalAlign=middle;resizable=0;points=[];fontSize=14;" vertex="1" connectable="0" parent="a6acP2pozzWjvfzwrBKU-1">
          <mxGeometry x="1124.3088235294117" y="380.5000000000002" as="geometry" />
        </mxCell>
        <mxCell id="Na1JPXhOpcZtYNCs6wXy-2" value="&lt;span style=&quot;font-size: 14px;&quot;&gt;Ambient&lt;/span&gt;&lt;span style=&quot;font-size: 14px;&quot;&gt; temp:&lt;/span&gt;&lt;div&gt;&lt;span style=&quot;font-size: 14px;&quot;&gt;$$T_{ambi}$$&lt;br&gt;&lt;/span&gt;&lt;/div&gt;" style="edgeLabel;html=1;align=center;verticalAlign=middle;resizable=0;points=[];fontSize=14;" vertex="1" connectable="0" parent="a6acP2pozzWjvfzwrBKU-1">
          <mxGeometry x="1117.0294117647063" y="434.5000000000002" as="geometry" />
        </mxCell>
        <mxCell id="Na1JPXhOpcZtYNCs6wXy-3" value="&lt;br&gt;&lt;div&gt;Opening &lt;br&gt;&lt;/div&gt;&lt;div&gt;degree: &lt;br&gt;&lt;/div&gt;&lt;div&gt;$$ \Theta_2 $$&lt;/div&gt;" style="edgeLabel;html=1;align=center;verticalAlign=middle;resizable=0;points=[];fontSize=14;" vertex="1" connectable="0" parent="a6acP2pozzWjvfzwrBKU-1">
          <mxGeometry x="1110.0005882352941" y="632.9975000000003" as="geometry" />
        </mxCell>
        <mxCell id="_1J4qGqYoD8-jGC9lADO-5" value="\begin{bmatrix}&lt;br style=&quot;font-size: 14px;&quot;&gt;p_1&lt;br style=&quot;font-size: 14px;&quot;&gt;\end{bmatrix}" style="edgeLabel;html=1;align=center;verticalAlign=middle;resizable=0;points=[];spacing=2;fontSize=14;horizontal=1;" parent="a6acP2pozzWjvfzwrBKU-1" vertex="1" connectable="0">
          <mxGeometry x="724.0000000000003" y="393" as="geometry" />
        </mxCell>
        <mxCell id="7Xz_9-x67nZ5A4HUlt5y-12" value="\begin{bmatrix}&lt;br style=&quot;font-size: 14px;&quot;&gt;T_1&lt;br style=&quot;font-size: 14px;&quot;&gt;\end{bmatrix}" style="edgeLabel;html=1;align=center;verticalAlign=middle;resizable=0;points=[];spacing=2;fontSize=14;horizontal=1;fontColor=#0000CC;" parent="a6acP2pozzWjvfzwrBKU-1" vertex="1" connectable="0">
          <mxGeometry x="496.00142857142913" y="167" as="geometry" />
        </mxCell>
        <mxCell id="7Xz_9-x67nZ5A4HUlt5y-81" value="\begin{bmatrix}&lt;br style=&quot;font-size: 14px;&quot;&gt;\dot{m}_5&lt;br style=&quot;font-size: 14px;&quot;&gt;\end{bmatrix}" style="edgeLabel;html=1;align=center;verticalAlign=middle;resizable=0;points=[];spacing=2;fontSize=14;horizontal=1;" parent="a6acP2pozzWjvfzwrBKU-1" vertex="1" connectable="0">
          <mxGeometry x="404.99750000000046" y="516" as="geometry" />
        </mxCell>
        <mxCell id="7Xz_9-x67nZ5A4HUlt5y-76" value="\begin{bmatrix}&lt;br style=&quot;font-size: 14px;&quot;&gt;T_3&lt;br style=&quot;font-size: 14px;&quot;&gt;\end{bmatrix}" style="edgeLabel;html=1;align=center;verticalAlign=middle;resizable=0;points=[];spacing=2;fontSize=14;horizontal=1;fontColor=#0000CC;" parent="a6acP2pozzWjvfzwrBKU-1" vertex="1" connectable="0">
          <mxGeometry x="923.0000000000003" y="264" as="geometry" />
        </mxCell>
        <mxCell id="7Xz_9-x67nZ5A4HUlt5y-15" value="\begin{bmatrix}&lt;br style=&quot;font-size: 14px;&quot;&gt;h_5\\&lt;br style=&quot;font-size: 14px;&quot;&gt;\dot{m}_4&lt;br style=&quot;font-size: 14px;&quot;&gt;\end{bmatrix}" style="edgeLabel;html=1;align=center;verticalAlign=middle;resizable=0;points=[];spacing=2;fontSize=14;horizontal=1;" parent="a6acP2pozzWjvfzwrBKU-1" vertex="1" connectable="0">
          <mxGeometry x="672.0800000000005" y="397" as="geometry" />
        </mxCell>
        <mxCell id="7Xz_9-x67nZ5A4HUlt5y-57" value="\begin{bmatrix}&lt;br style=&quot;font-size: 14px;&quot;&gt;h_6&lt;br style=&quot;font-size: 14px;&quot;&gt;\end{bmatrix}" style="edgeLabel;html=1;align=center;verticalAlign=middle;resizable=0;points=[];spacing=2;fontSize=14;horizontal=1;" parent="a6acP2pozzWjvfzwrBKU-1" vertex="1" connectable="0">
          <mxGeometry x="363.99750000000046" y="527" as="geometry" />
        </mxCell>
        <mxCell id="7Xz_9-x67nZ5A4HUlt5y-24" value="" style="endArrow=classic;html=1;rounded=0;fontSize=14;" parent="a6acP2pozzWjvfzwrBKU-1" edge="1">
          <mxGeometry width="50" height="50" relative="1" as="geometry">
            <mxPoint x="671.25" y="601" as="sourcePoint" />
            <mxPoint x="671" y="417" as="targetPoint" />
          </mxGeometry>
        </mxCell>
        <mxCell id="EQVUS-7tTAIxQR2iRs7y-0" value="Compressor &lt;br style=&quot;font-size: 14px&quot;&gt;stage 1&lt;br style=&quot;font-size: 14px&quot;&gt;&lt;br style=&quot;font-size: 14px&quot;&gt;&lt;br style=&quot;font-size: 14px&quot;&gt;" style="rounded=0;whiteSpace=wrap;html=1;fontSize=14;" parent="a6acP2pozzWjvfzwrBKU-1" vertex="1">
          <mxGeometry x="297.5" y="107" width="150.00000000000003" height="100" as="geometry" />
        </mxCell>
        <mxCell id="EQVUS-7tTAIxQR2iRs7y-2" value="&lt;div style=&quot;font-size: 14px&quot;&gt;Compressor&amp;nbsp;&lt;/div&gt;&lt;span style=&quot;font-size: 14px&quot;&gt;&lt;div style=&quot;font-size: 14px&quot;&gt;stage 2&lt;/div&gt;&lt;div style=&quot;font-size: 14px&quot;&gt;&lt;br&gt;&lt;/div&gt;&lt;div style=&quot;font-size: 14px&quot;&gt;&lt;br style=&quot;font-size: 14px&quot;&gt;&lt;/div&gt;&lt;div style=&quot;font-size: 14px&quot;&gt;&lt;br style=&quot;font-size: 14px&quot;&gt;&lt;/div&gt;&lt;/span&gt;" style="rounded=0;whiteSpace=wrap;html=1;fontSize=14;align=center;" parent="a6acP2pozzWjvfzwrBKU-1" vertex="1">
          <mxGeometry x="897.5000000000002" y="107" width="150.00000000000003" height="100" as="geometry" />
        </mxCell>
        <mxCell id="EQVUS-7tTAIxQR2iRs7y-4" value="Condenser&lt;br style=&quot;font-size: 14px&quot;&gt;&lt;br style=&quot;font-size: 14px&quot;&gt;&lt;br style=&quot;font-size: 14px&quot;&gt;&lt;br style=&quot;font-size: 14px&quot;&gt;" style="rounded=0;whiteSpace=wrap;html=1;fontSize=14;" parent="a6acP2pozzWjvfzwrBKU-1" vertex="1">
          <mxGeometry x="897.5000000000002" y="357.0000000000001" width="150.00000000000003" height="100" as="geometry" />
        </mxCell>
        <mxCell id="EQVUS-7tTAIxQR2iRs7y-6" value="Condenser throttle&lt;br style=&quot;font-size: 14px&quot;&gt;valve&lt;br style=&quot;font-size: 14px&quot;&gt;&lt;br style=&quot;font-size: 14px&quot;&gt;&lt;br style=&quot;font-size: 14px&quot;&gt;" style="rounded=0;whiteSpace=wrap;html=1;fontSize=14;" parent="a6acP2pozzWjvfzwrBKU-1" vertex="1">
          <mxGeometry x="897.5000000000002" y="607" width="150.00000000000003" height="100" as="geometry" />
        </mxCell>
        <mxCell id="EQVUS-7tTAIxQR2iRs7y-8" value="Flash tank&lt;br style=&quot;font-size: 14px&quot;&gt;&lt;br style=&quot;font-size: 14px&quot;&gt;&lt;br style=&quot;font-size: 14px&quot;&gt;&lt;br style=&quot;font-size: 14px&quot;&gt;" style="rounded=0;whiteSpace=wrap;html=1;fontSize=14;" parent="a6acP2pozzWjvfzwrBKU-1" vertex="1">
          <mxGeometry x="597.5000000000002" y="607" width="150.00000000000003" height="100" as="geometry" />
        </mxCell>
        <mxCell id="EQVUS-7tTAIxQR2iRs7y-10" value="Evaporator&lt;br style=&quot;font-size: 14px&quot;&gt;&lt;br style=&quot;font-size: 14px&quot;&gt;&lt;br style=&quot;font-size: 14px&quot;&gt;&lt;br style=&quot;font-size: 14px&quot;&gt;" style="rounded=0;whiteSpace=wrap;html=1;fontSize=14;" parent="a6acP2pozzWjvfzwrBKU-1" vertex="1">
          <mxGeometry x="297.5" y="357.0000000000001" width="150.00000000000003" height="100" as="geometry" />
        </mxCell>
        <mxCell id="EQVUS-7tTAIxQR2iRs7y-12" value="Expansion valve&lt;br style=&quot;font-size: 14px&quot;&gt;&lt;br style=&quot;font-size: 14px&quot;&gt;&lt;br style=&quot;font-size: 14px&quot;&gt;&lt;br style=&quot;font-size: 14px&quot;&gt;" style="rounded=0;whiteSpace=wrap;html=1;fontSize=14;" parent="a6acP2pozzWjvfzwrBKU-1" vertex="1">
          <mxGeometry x="297.5" y="607" width="150.00000000000003" height="100" as="geometry" />
        </mxCell>
        <mxCell id="EQVUS-7tTAIxQR2iRs7y-19" value="" style="endArrow=classic;html=1;rounded=0;entryX=-0.006;entryY=0.875;entryDx=0;entryDy=0;fontSize=14;edgeStyle=orthogonalEdgeStyle;entryPerimeter=0;dashed=1;dashPattern=1 1;" parent="a6acP2pozzWjvfzwrBKU-1" edge="1">
          <mxGeometry width="50" height="50" relative="1" as="geometry">
            <mxPoint x="164" y="512" as="sourcePoint" />
            <mxPoint x="296.60000000000014" y="439.5" as="targetPoint" />
            <Array as="points">
              <mxPoint x="246.24999999999974" y="439.50000000000006" />
            </Array>
          </mxGeometry>
        </mxCell>
        <mxCell id="EQVUS-7tTAIxQR2iRs7y-21" value="" style="endArrow=classic;html=1;rounded=0;entryX=1;entryY=0.25;entryDx=0;entryDy=0;fontSize=14;dashed=1;dashPattern=1 1;" parent="a6acP2pozzWjvfzwrBKU-1" target="EQVUS-7tTAIxQR2iRs7y-4" edge="1">
          <mxGeometry width="50" height="50" relative="1" as="geometry">
            <mxPoint x="1096.25" y="382" as="sourcePoint" />
            <mxPoint x="1047.5000000000002" y="406.6375000000001" as="targetPoint" />
          </mxGeometry>
        </mxCell>
        <mxCell id="EQVUS-7tTAIxQR2iRs7y-23" value="" style="endArrow=classic;html=1;rounded=0;entryX=0;entryY=0.5;entryDx=0;entryDy=0;fontSize=14;dashed=1;dashPattern=1 1;" parent="a6acP2pozzWjvfzwrBKU-1" edge="1">
          <mxGeometry width="50" height="50" relative="1" as="geometry">
            <mxPoint x="247.50000000000028" y="656.6375000000002" as="sourcePoint" />
            <mxPoint x="297.50000000000034" y="656.6375000000002" as="targetPoint" />
          </mxGeometry>
        </mxCell>
        <mxCell id="EQVUS-7tTAIxQR2iRs7y-25" value="" style="endArrow=classic;html=1;rounded=0;entryX=1;entryY=0.5;entryDx=0;entryDy=0;fontSize=14;dashed=1;dashPattern=1 1;" parent="a6acP2pozzWjvfzwrBKU-1" edge="1">
          <mxGeometry width="50" height="50" relative="1" as="geometry">
            <mxPoint x="1097.5" y="656.6375000000002" as="sourcePoint" />
            <mxPoint x="1047.5000000000002" y="656.6375000000002" as="targetPoint" />
          </mxGeometry>
        </mxCell>
        <mxCell id="EQVUS-7tTAIxQR2iRs7y-27" value="" style="endArrow=classic;html=1;rounded=0;entryX=0.5;entryY=0;entryDx=0;entryDy=0;fontSize=14;dashed=1;dashPattern=1 1;" parent="a6acP2pozzWjvfzwrBKU-1" target="EQVUS-7tTAIxQR2iRs7y-0" edge="1">
          <mxGeometry width="50" height="50" relative="1" as="geometry">
            <mxPoint x="672.3875000000002" y="82" as="sourcePoint" />
            <mxPoint x="709.8875000000002" y="44.5" as="targetPoint" />
            <Array as="points">
              <mxPoint x="372.3875000000002" y="82" />
            </Array>
          </mxGeometry>
        </mxCell>
        <mxCell id="EQVUS-7tTAIxQR2iRs7y-28" value="" style="endArrow=classic;html=1;rounded=0;entryX=0.5;entryY=0;entryDx=0;entryDy=0;fontSize=14;dashed=1;dashPattern=1 1;" parent="a6acP2pozzWjvfzwrBKU-1" target="EQVUS-7tTAIxQR2iRs7y-2" edge="1">
          <mxGeometry width="50" height="50" relative="1" as="geometry">
            <mxPoint x="672.3875000000002" y="82" as="sourcePoint" />
            <mxPoint x="384.9999999999998" y="119.5" as="targetPoint" />
            <Array as="points">
              <mxPoint x="972.3875000000003" y="82" />
            </Array>
          </mxGeometry>
        </mxCell>
        <mxCell id="EQVUS-7tTAIxQR2iRs7y-34" value="Pipe Joining &lt;br style=&quot;font-size: 14px&quot;&gt;Junction&lt;br style=&quot;font-size: 14px&quot;&gt;&lt;br style=&quot;font-size: 14px&quot;&gt;&lt;br style=&quot;font-size: 14px&quot;&gt;" style="rounded=0;whiteSpace=wrap;html=1;fontSize=14;" parent="a6acP2pozzWjvfzwrBKU-1" vertex="1">
          <mxGeometry x="597.5000000000005" y="107" width="150.00000000000003" height="100" as="geometry" />
        </mxCell>
        <mxCell id="M3D5h5YDdG_GwLnv0Bj_-5" value="\begin{bmatrix}&lt;br style=&quot;font-size: 14px;&quot;&gt;\dot{m}_5&lt;br style=&quot;font-size: 14px;&quot;&gt;\end{bmatrix}" style="edgeLabel;html=1;align=center;verticalAlign=middle;resizable=0;points=[];spacing=2;fontSize=14;horizontal=1;" parent="a6acP2pozzWjvfzwrBKU-1" vertex="1" connectable="0">
          <mxGeometry x="520.1275000000005" y="689.0000000000002" as="geometry" />
        </mxCell>
        <mxCell id="f2Dl9Xk0tZvhv3cU8BBC-0" value="Box&lt;br style=&quot;font-size: 14px&quot;&gt;&lt;br style=&quot;font-size: 14px&quot;&gt;&lt;br style=&quot;font-size: 14px&quot;&gt;&lt;br style=&quot;font-size: 14px&quot;&gt;" style="rounded=0;whiteSpace=wrap;html=1;fontSize=14;" parent="a6acP2pozzWjvfzwrBKU-1" vertex="1">
          <mxGeometry x="5" y="357.0000000000001" width="150.00000000000003" height="100" as="geometry" />
        </mxCell>
        <mxCell id="f2Dl9Xk0tZvhv3cU8BBC-8" value="" style="endArrow=classic;html=1;rounded=0;entryX=1;entryY=0.75;entryDx=0;entryDy=0;fontSize=14;dashed=1;dashPattern=1 1;" parent="a6acP2pozzWjvfzwrBKU-1" target="EQVUS-7tTAIxQR2iRs7y-4" edge="1">
          <mxGeometry width="50" height="50" relative="1" as="geometry">
            <mxPoint x="1097.4999999999998" y="432.00000000000006" as="sourcePoint" />
            <mxPoint x="1060" y="419.13750000000005" as="targetPoint" />
          </mxGeometry>
        </mxCell>
        <mxCell id="f2Dl9Xk0tZvhv3cU8BBC-10" value="" style="endArrow=classic;html=1;rounded=0;entryX=0.5;entryY=0;entryDx=0;entryDy=0;fontSize=14;dashed=1;dashPattern=1 1;" parent="a6acP2pozzWjvfzwrBKU-1" target="f2Dl9Xk0tZvhv3cU8BBC-0" edge="1">
          <mxGeometry width="50" height="50" relative="1" as="geometry">
            <mxPoint x="79.99999999999972" y="300.75" as="sourcePoint" />
            <mxPoint x="33.75" y="288.25000000000006" as="targetPoint" />
          </mxGeometry>
        </mxCell>
        <mxCell id="f2Dl9Xk0tZvhv3cU8BBC-11" value="Ambient&lt;br style=&quot;font-size: 14px;&quot;&gt;temperature" style="edgeLabel;html=1;align=center;verticalAlign=middle;resizable=0;points=[];fontSize=14;" parent="f2Dl9Xk0tZvhv3cU8BBC-10" vertex="1" connectable="0">
          <mxGeometry x="-0.4554" y="-1" relative="1" as="geometry">
            <mxPoint x="1" y="-25" as="offset" />
          </mxGeometry>
        </mxCell>
        <mxCell id="7Xz_9-x67nZ5A4HUlt5y-1" value="\begin{bmatrix}&lt;br style=&quot;font-size: 14px;&quot;&gt;\dot{m}_2&lt;br style=&quot;font-size: 14px;&quot;&gt;\end{bmatrix}" style="edgeLabel;html=1;align=center;verticalAlign=middle;resizable=0;points=[];spacing=2;fontSize=14;horizontal=1;" parent="a6acP2pozzWjvfzwrBKU-1" vertex="1" connectable="0">
          <mxGeometry x="816.0000000000003" y="120" as="geometry" />
        </mxCell>
        <mxCell id="7Xz_9-x67nZ5A4HUlt5y-7" value="\begin{bmatrix}&lt;br style=&quot;font-size: 14px;&quot;&gt;T_2&lt;br style=&quot;font-size: 14px;&quot;&gt;\end{bmatrix}" style="edgeLabel;html=1;align=center;verticalAlign=middle;resizable=0;points=[];spacing=2;fontSize=14;horizontal=1;fontColor=#000000;" parent="a6acP2pozzWjvfzwrBKU-1" vertex="1" connectable="0">
          <mxGeometry x="824.0000000000003" y="159" as="geometry" />
        </mxCell>
        <mxCell id="7Xz_9-x67nZ5A4HUlt5y-8" value="" style="endArrow=classic;html=1;rounded=0;fontSize=14;" parent="a6acP2pozzWjvfzwrBKU-1" edge="1">
          <mxGeometry width="50" height="50" relative="1" as="geometry">
            <mxPoint x="751.5" y="160.51" as="sourcePoint" />
            <mxPoint x="807.5" y="160.51" as="targetPoint" />
          </mxGeometry>
        </mxCell>
        <mxCell id="7Xz_9-x67nZ5A4HUlt5y-10" value="\begin{bmatrix}&lt;br style=&quot;font-size: 14px;&quot;&gt;p_1&lt;br style=&quot;font-size: 14px;&quot;&gt;\end{bmatrix}" style="edgeLabel;html=1;align=center;verticalAlign=middle;resizable=0;points=[];spacing=2;fontSize=14;horizontal=1;" parent="a6acP2pozzWjvfzwrBKU-1" vertex="1" connectable="0">
          <mxGeometry x="823.0000000000003" y="196" as="geometry" />
        </mxCell>
        <mxCell id="7Xz_9-x67nZ5A4HUlt5y-11" value="" style="endArrow=classic;html=1;rounded=0;fontSize=14;" parent="a6acP2pozzWjvfzwrBKU-1" edge="1">
          <mxGeometry width="50" height="50" relative="1" as="geometry">
            <mxPoint x="797" y="121" as="sourcePoint" />
            <mxPoint x="751" y="121" as="targetPoint" />
          </mxGeometry>
        </mxCell>
        <mxCell id="7Xz_9-x67nZ5A4HUlt5y-13" value="\begin{bmatrix}&lt;br style=&quot;font-size: 14px;&quot;&gt;h_1\\&lt;br style=&quot;font-size: 14px;&quot;&gt;\dot{m}_1&lt;br style=&quot;font-size: 14px;&quot;&gt;\end{bmatrix}" style="edgeLabel;html=1;align=center;verticalAlign=middle;resizable=0;points=[];spacing=2;fontSize=14;horizontal=1;" parent="a6acP2pozzWjvfzwrBKU-1" vertex="1" connectable="0">
          <mxGeometry x="534.0014285714291" y="127" as="geometry" />
        </mxCell>
        <mxCell id="7Xz_9-x67nZ5A4HUlt5y-14" value="" style="endArrow=classic;html=1;rounded=0;fontSize=14;" parent="a6acP2pozzWjvfzwrBKU-1" edge="1">
          <mxGeometry width="50" height="50" relative="1" as="geometry">
            <mxPoint x="554" y="127" as="sourcePoint" />
            <mxPoint x="594" y="127" as="targetPoint" />
          </mxGeometry>
        </mxCell>
        <mxCell id="7Xz_9-x67nZ5A4HUlt5y-16" value="" style="endArrow=classic;html=1;rounded=0;fontSize=14;" parent="a6acP2pozzWjvfzwrBKU-1" edge="1">
          <mxGeometry width="50" height="50" relative="1" as="geometry">
            <mxPoint x="673.08" y="377" as="sourcePoint" />
            <mxPoint x="673" y="210" as="targetPoint" />
          </mxGeometry>
        </mxCell>
        <mxCell id="7Xz_9-x67nZ5A4HUlt5y-17" value="" style="endArrow=classic;html=1;rounded=0;fontSize=14;" parent="a6acP2pozzWjvfzwrBKU-1" edge="1">
          <mxGeometry width="50" height="50" relative="1" as="geometry">
            <mxPoint x="450" y="167" as="sourcePoint" />
            <mxPoint x="479" y="167" as="targetPoint" />
          </mxGeometry>
        </mxCell>
        <mxCell id="7Xz_9-x67nZ5A4HUlt5y-18" value="" style="endArrow=classic;html=1;rounded=0;fontSize=14;" parent="a6acP2pozzWjvfzwrBKU-1" edge="1">
          <mxGeometry width="50" height="50" relative="1" as="geometry">
            <mxPoint x="724" y="380" as="sourcePoint" />
            <mxPoint x="806" y="197" as="targetPoint" />
            <Array as="points">
              <mxPoint x="724" y="347" />
              <mxPoint x="724" y="237" />
              <mxPoint x="770" y="237" />
              <mxPoint x="770" y="197" />
            </Array>
          </mxGeometry>
        </mxCell>
        <mxCell id="7Xz_9-x67nZ5A4HUlt5y-19" value="" style="endArrow=classic;html=1;rounded=0;jumpStyle=arc;jumpSize=10;fontSize=14;" parent="a6acP2pozzWjvfzwrBKU-1" edge="1">
          <mxGeometry width="50" height="50" relative="1" as="geometry">
            <mxPoint x="720" y="586" as="sourcePoint" />
            <mxPoint x="554" y="626" as="targetPoint" />
            <Array as="points">
              <mxPoint x="574" y="586" />
              <mxPoint x="574" y="626" />
            </Array>
          </mxGeometry>
        </mxCell>
        <mxCell id="7Xz_9-x67nZ5A4HUlt5y-22" value="" style="endArrow=classic;html=1;rounded=0;fontSize=14;" parent="a6acP2pozzWjvfzwrBKU-1" edge="1">
          <mxGeometry width="50" height="50" relative="1" as="geometry">
            <mxPoint x="841" y="197" as="sourcePoint" />
            <mxPoint x="891" y="197" as="targetPoint" />
          </mxGeometry>
        </mxCell>
        <mxCell id="7Xz_9-x67nZ5A4HUlt5y-26" value="\begin{bmatrix}&lt;br style=&quot;font-size: 14px;&quot;&gt;p_1&lt;br style=&quot;font-size: 14px;&quot;&gt;\end{bmatrix}" style="edgeLabel;html=1;align=center;verticalAlign=middle;resizable=0;points=[];spacing=2;fontSize=14;horizontal=1;" parent="a6acP2pozzWjvfzwrBKU-1" vertex="1" connectable="0">
          <mxGeometry x="539.4400000000003" y="623" as="geometry" />
        </mxCell>
        <mxCell id="7Xz_9-x67nZ5A4HUlt5y-27" value="" style="endArrow=classic;html=1;rounded=0;jumpStyle=arc;jumpSize=10;fontSize=14;" parent="a6acP2pozzWjvfzwrBKU-1" edge="1">
          <mxGeometry width="50" height="50" relative="1" as="geometry">
            <mxPoint x="524" y="627" as="sourcePoint" />
            <mxPoint x="454" y="627" as="targetPoint" />
          </mxGeometry>
        </mxCell>
        <mxCell id="7Xz_9-x67nZ5A4HUlt5y-28" value="" style="endArrow=classic;html=1;rounded=0;fontSize=14;" parent="a6acP2pozzWjvfzwrBKU-1" edge="1">
          <mxGeometry width="50" height="50" relative="1" as="geometry">
            <mxPoint x="454" y="127" as="sourcePoint" />
            <mxPoint x="514" y="127" as="targetPoint" />
          </mxGeometry>
        </mxCell>
        <mxCell id="7Xz_9-x67nZ5A4HUlt5y-29" value="\begin{bmatrix}&lt;br style=&quot;font-size: 14px;&quot;&gt;\dot{m}_2\\&lt;br style=&quot;font-size: 14px;&quot;&gt;h_3&lt;br style=&quot;font-size: 14px;&quot;&gt;\end{bmatrix}" style="edgeLabel;html=1;align=center;verticalAlign=middle;resizable=0;points=[];spacing=2;fontSize=14;horizontal=1;" parent="a6acP2pozzWjvfzwrBKU-1" vertex="1" connectable="0">
          <mxGeometry x="972.9200000000003" y="277" as="geometry" />
        </mxCell>
        <mxCell id="7Xz_9-x67nZ5A4HUlt5y-30" value="" style="endArrow=classic;html=1;rounded=0;fontSize=14;" parent="a6acP2pozzWjvfzwrBKU-1" edge="1">
          <mxGeometry width="50" height="50" relative="1" as="geometry">
            <mxPoint x="972.92" y="212" as="sourcePoint" />
            <mxPoint x="972.92" y="252" as="targetPoint" />
          </mxGeometry>
        </mxCell>
        <mxCell id="7Xz_9-x67nZ5A4HUlt5y-32" value="" style="endArrow=classic;html=1;rounded=0;fontSize=14;" parent="a6acP2pozzWjvfzwrBKU-1" edge="1">
          <mxGeometry width="50" height="50" relative="1" as="geometry">
            <mxPoint x="972.92" y="302" as="sourcePoint" />
            <mxPoint x="971.92" y="352" as="targetPoint" />
          </mxGeometry>
        </mxCell>
        <mxCell id="7Xz_9-x67nZ5A4HUlt5y-36" value="\begin{bmatrix}\&lt;br style=&quot;font-size: 14px;&quot;&gt;p_2\\&lt;br style=&quot;font-size: 14px;&quot;&gt;\end{bmatrix}" style="edgeLabel;html=1;align=center;verticalAlign=middle;resizable=0;points=[];spacing=2;fontSize=14;horizontal=1;" parent="a6acP2pozzWjvfzwrBKU-1" vertex="1" connectable="0">
          <mxGeometry x="1015.3975000000004" y="282" as="geometry" />
        </mxCell>
        <mxCell id="7Xz_9-x67nZ5A4HUlt5y-38" value="" style="endArrow=classic;html=1;rounded=0;entryX=0.634;entryY=1.02;entryDx=0;entryDy=0;entryPerimeter=0;fontSize=14;" parent="a6acP2pozzWjvfzwrBKU-1" edge="1">
          <mxGeometry width="50" height="50" relative="1" as="geometry">
            <mxPoint x="1014.4" y="267" as="sourcePoint" />
            <mxPoint x="1014.0000000000001" y="209" as="targetPoint" />
          </mxGeometry>
        </mxCell>
        <mxCell id="7Xz_9-x67nZ5A4HUlt5y-41" value="" style="endArrow=classic;html=1;rounded=0;fontSize=14;" parent="a6acP2pozzWjvfzwrBKU-1" edge="1">
          <mxGeometry width="50" height="50" relative="1" as="geometry">
            <mxPoint x="1015.4" y="357" as="sourcePoint" />
            <mxPoint x="1014.4" y="297" as="targetPoint" />
          </mxGeometry>
        </mxCell>
        <mxCell id="7Xz_9-x67nZ5A4HUlt5y-49" value="" style="endArrow=classic;html=1;rounded=0;jumpStyle=arc;jumpSize=10;fontSize=14;" parent="a6acP2pozzWjvfzwrBKU-1" edge="1">
          <mxGeometry width="50" height="50" relative="1" as="geometry">
            <mxPoint x="923" y="557" as="sourcePoint" />
            <mxPoint x="841" y="652" as="targetPoint" />
            <Array as="points">
              <mxPoint x="860" y="557" />
              <mxPoint x="860" y="587" />
              <mxPoint x="860" y="652" />
            </Array>
          </mxGeometry>
        </mxCell>
        <mxCell id="7Xz_9-x67nZ5A4HUlt5y-52" value="" style="endArrow=classic;html=1;rounded=0;jumpStyle=arc;jumpSize=10;fontSize=14;" parent="a6acP2pozzWjvfzwrBKU-1" edge="1">
          <mxGeometry width="50" height="50" relative="1" as="geometry">
            <mxPoint x="593.19" y="689" as="sourcePoint" />
            <mxPoint x="541.69" y="689" as="targetPoint" />
          </mxGeometry>
        </mxCell>
        <mxCell id="7Xz_9-x67nZ5A4HUlt5y-53" value="" style="endArrow=classic;html=1;rounded=0;jumpStyle=arc;jumpSize=10;fontSize=14;" parent="a6acP2pozzWjvfzwrBKU-1" edge="1">
          <mxGeometry width="50" height="50" relative="1" as="geometry">
            <mxPoint x="503.19" y="689.33" as="sourcePoint" />
            <mxPoint x="451.69" y="689.33" as="targetPoint" />
          </mxGeometry>
        </mxCell>
        <mxCell id="7Xz_9-x67nZ5A4HUlt5y-54" value="\begin{bmatrix}&lt;br style=&quot;font-size: 14px;&quot;&gt;h_6&lt;br style=&quot;font-size: 14px;&quot;&gt;\end{bmatrix}" style="edgeLabel;html=1;align=center;verticalAlign=middle;resizable=0;points=[];spacing=2;fontSize=14;horizontal=1;" parent="a6acP2pozzWjvfzwrBKU-1" vertex="1" connectable="0">
          <mxGeometry x="523.1275000000005" y="656.0000000000002" as="geometry" />
        </mxCell>
        <mxCell id="7Xz_9-x67nZ5A4HUlt5y-55" value="" style="endArrow=classic;html=1;rounded=0;jumpStyle=arc;jumpSize=10;fontSize=14;" parent="a6acP2pozzWjvfzwrBKU-1" edge="1">
          <mxGeometry width="50" height="50" relative="1" as="geometry">
            <mxPoint x="592.5" y="656.67" as="sourcePoint" />
            <mxPoint x="541" y="656.67" as="targetPoint" />
          </mxGeometry>
        </mxCell>
        <mxCell id="7Xz_9-x67nZ5A4HUlt5y-56" value="" style="endArrow=classic;html=1;rounded=0;jumpStyle=arc;jumpSize=10;fontSize=14;" parent="a6acP2pozzWjvfzwrBKU-1" edge="1">
          <mxGeometry width="50" height="50" relative="1" as="geometry">
            <mxPoint x="510" y="656.67" as="sourcePoint" />
            <mxPoint x="364" y="537" as="targetPoint" />
            <Array as="points">
              <mxPoint x="474" y="657" />
              <mxPoint x="474" y="587" />
              <mxPoint x="364" y="587" />
            </Array>
          </mxGeometry>
        </mxCell>
        <mxCell id="7Xz_9-x67nZ5A4HUlt5y-58" value="" style="endArrow=classic;html=1;rounded=0;fontSize=14;" parent="a6acP2pozzWjvfzwrBKU-1" edge="1">
          <mxGeometry width="50" height="50" relative="1" as="geometry">
            <mxPoint x="364" y="517" as="sourcePoint" />
            <mxPoint x="364" y="467" as="targetPoint" />
          </mxGeometry>
        </mxCell>
        <mxCell id="7Xz_9-x67nZ5A4HUlt5y-60" value="" style="endArrow=classic;html=1;rounded=0;jumpStyle=arc;jumpSize=8;fontSize=14;" parent="a6acP2pozzWjvfzwrBKU-1" edge="1">
          <mxGeometry width="50" height="50" relative="1" as="geometry">
            <mxPoint x="724" y="237" as="sourcePoint" />
            <mxPoint x="544" y="196" as="targetPoint" />
            <Array as="points">
              <mxPoint x="564" y="237" />
              <mxPoint x="564" y="196" />
            </Array>
          </mxGeometry>
        </mxCell>
        <mxCell id="7Xz_9-x67nZ5A4HUlt5y-61" value="\begin{bmatrix}&lt;br style=&quot;font-size: 14px;&quot;&gt;p_1&lt;br style=&quot;font-size: 14px;&quot;&gt;\end{bmatrix}" style="edgeLabel;html=1;align=center;verticalAlign=middle;resizable=0;points=[];spacing=2;fontSize=14;horizontal=1;" parent="a6acP2pozzWjvfzwrBKU-1" vertex="1" connectable="0">
          <mxGeometry x="532.0014285714292" y="197" as="geometry">
            <mxPoint x="-3" y="-1" as="offset" />
          </mxGeometry>
        </mxCell>
        <mxCell id="7Xz_9-x67nZ5A4HUlt5y-62" value="" style="endArrow=classic;html=1;rounded=0;fontSize=14;" parent="a6acP2pozzWjvfzwrBKU-1" edge="1">
          <mxGeometry width="50" height="50" relative="1" as="geometry">
            <mxPoint x="454" y="127" as="sourcePoint" />
            <mxPoint x="514" y="127" as="targetPoint" />
          </mxGeometry>
        </mxCell>
        <mxCell id="7Xz_9-x67nZ5A4HUlt5y-63" value="" style="endArrow=classic;html=1;rounded=0;fontSize=14;" parent="a6acP2pozzWjvfzwrBKU-1" edge="1">
          <mxGeometry width="50" height="50" relative="1" as="geometry">
            <mxPoint x="514" y="196" as="sourcePoint" />
            <mxPoint x="454" y="196" as="targetPoint" />
          </mxGeometry>
        </mxCell>
        <mxCell id="7Xz_9-x67nZ5A4HUlt5y-64" value="\begin{bmatrix}&lt;br style=&quot;font-size: 14px;&quot;&gt;\dot{m}_1&lt;br style=&quot;font-size: 14px;&quot;&gt;\end{bmatrix}" style="edgeLabel;html=1;align=center;verticalAlign=middle;resizable=0;points=[];spacing=2;fontSize=14;horizontal=1;" parent="a6acP2pozzWjvfzwrBKU-1" vertex="1" connectable="0">
          <mxGeometry x="339.99750000000046" y="282" as="geometry" />
        </mxCell>
        <mxCell id="7Xz_9-x67nZ5A4HUlt5y-65" value="" style="endArrow=classic;html=1;rounded=0;fontSize=14;" parent="a6acP2pozzWjvfzwrBKU-1" edge="1">
          <mxGeometry width="50" height="50" relative="1" as="geometry">
            <mxPoint x="341.33000000000004" y="210" as="sourcePoint" />
            <mxPoint x="341" y="267" as="targetPoint" />
          </mxGeometry>
        </mxCell>
        <mxCell id="7Xz_9-x67nZ5A4HUlt5y-66" value="" style="endArrow=classic;html=1;rounded=0;fontSize=14;" parent="a6acP2pozzWjvfzwrBKU-1" edge="1">
          <mxGeometry width="50" height="50" relative="1" as="geometry">
            <mxPoint x="341" y="297" as="sourcePoint" />
            <mxPoint x="341" y="354" as="targetPoint" />
          </mxGeometry>
        </mxCell>
        <mxCell id="7Xz_9-x67nZ5A4HUlt5y-75" value="" style="endArrow=classic;html=1;rounded=0;fontSize=14;" parent="a6acP2pozzWjvfzwrBKU-1" edge="1">
          <mxGeometry width="50" height="50" relative="1" as="geometry">
            <mxPoint x="923.9999999999999" y="212" as="sourcePoint" />
            <mxPoint x="923.9999999999999" y="252" as="targetPoint" />
          </mxGeometry>
        </mxCell>
        <mxCell id="7Xz_9-x67nZ5A4HUlt5y-82" value="" style="endArrow=classic;html=1;rounded=0;fontSize=14;" parent="a6acP2pozzWjvfzwrBKU-1" edge="1">
          <mxGeometry width="50" height="50" relative="1" as="geometry">
            <mxPoint x="404" y="507" as="sourcePoint" />
            <mxPoint x="404" y="467" as="targetPoint" />
          </mxGeometry>
        </mxCell>
        <mxCell id="7Xz_9-x67nZ5A4HUlt5y-83" value="\begin{bmatrix}&lt;br style=&quot;font-size: 14px;&quot;&gt;p_4&lt;br style=&quot;font-size: 14px;&quot;&gt;\end{bmatrix}" style="edgeLabel;html=1;align=center;verticalAlign=middle;resizable=0;points=[];spacing=2;fontSize=14;horizontal=1;" parent="a6acP2pozzWjvfzwrBKU-1" vertex="1" connectable="0">
          <mxGeometry x="324.0000000000003" y="532" as="geometry" />
        </mxCell>
        <mxCell id="7Xz_9-x67nZ5A4HUlt5y-84" value="" style="endArrow=classic;html=1;rounded=0;fontSize=14;" parent="a6acP2pozzWjvfzwrBKU-1" edge="1">
          <mxGeometry width="50" height="50" relative="1" as="geometry">
            <mxPoint x="323.9999999999999" y="603" as="sourcePoint" />
            <mxPoint x="324" y="547" as="targetPoint" />
          </mxGeometry>
        </mxCell>
        <mxCell id="7Xz_9-x67nZ5A4HUlt5y-85" value="" style="endArrow=classic;html=1;rounded=0;fontSize=14;" parent="a6acP2pozzWjvfzwrBKU-1" edge="1">
          <mxGeometry width="50" height="50" relative="1" as="geometry">
            <mxPoint x="323.56" y="523" as="sourcePoint" />
            <mxPoint x="323.56" y="467" as="targetPoint" />
          </mxGeometry>
        </mxCell>
        <mxCell id="7Xz_9-x67nZ5A4HUlt5y-91" value="\begin{bmatrix}&lt;br style=&quot;font-size: 14px;&quot;&gt;p_5\\&lt;br style=&quot;font-size: 14px;&quot;&gt;T_7&lt;br style=&quot;font-size: 14px;&quot;&gt;\end{bmatrix}" style="edgeLabel;html=1;align=center;verticalAlign=middle;resizable=0;points=[];spacing=2;fontSize=14;horizontal=1;" parent="a6acP2pozzWjvfzwrBKU-1" vertex="1" connectable="0">
          <mxGeometry x="402.1275000000004" y="284" as="geometry" />
        </mxCell>
        <mxCell id="7Xz_9-x67nZ5A4HUlt5y-92" value="" style="endArrow=classic;html=1;rounded=0;fontSize=14;" parent="a6acP2pozzWjvfzwrBKU-1" edge="1">
          <mxGeometry width="50" height="50" relative="1" as="geometry">
            <mxPoint x="401.9999999999999" y="355" as="sourcePoint" />
            <mxPoint x="402.13" y="309" as="targetPoint" />
          </mxGeometry>
        </mxCell>
        <mxCell id="7Xz_9-x67nZ5A4HUlt5y-93" value="" style="endArrow=classic;html=1;rounded=0;fontSize=14;" parent="a6acP2pozzWjvfzwrBKU-1" edge="1">
          <mxGeometry width="50" height="50" relative="1" as="geometry">
            <mxPoint x="402.13" y="259" as="sourcePoint" />
            <mxPoint x="402.13" y="209" as="targetPoint" />
          </mxGeometry>
        </mxCell>
        <mxCell id="2IGsuQoMTE90SmOeLrJ3-7" value="" style="group;fontSize=14;" parent="a6acP2pozzWjvfzwrBKU-1" vertex="1" connectable="0">
          <mxGeometry x="164" y="409" width="130" as="geometry" />
        </mxCell>
        <mxCell id="7Xz_9-x67nZ5A4HUlt5y-87" value="" style="endArrow=classic;html=1;rounded=0;fontSize=14;" parent="2IGsuQoMTE90SmOeLrJ3-7" edge="1">
          <mxGeometry width="50" height="50" relative="1" as="geometry">
            <mxPoint as="sourcePoint" />
            <mxPoint x="130" as="targetPoint" />
          </mxGeometry>
        </mxCell>
        <mxCell id="7Xz_9-x67nZ5A4HUlt5y-86" value="\begin{bmatrix}&lt;br style=&quot;font-size: 14px;&quot;&gt;T_{ret}&lt;br style=&quot;font-size: 14px;&quot;&gt;\end{bmatrix}" style="edgeLabel;html=1;align=center;verticalAlign=middle;resizable=0;points=[];spacing=2;fontSize=14;horizontal=1;" parent="2IGsuQoMTE90SmOeLrJ3-7" vertex="1" connectable="0">
          <mxGeometry x="58.99750000000046" as="geometry" />
        </mxCell>
        <mxCell id="2IGsuQoMTE90SmOeLrJ3-8" value="" style="group;fontSize=14;" parent="a6acP2pozzWjvfzwrBKU-1" vertex="1" connectable="0">
          <mxGeometry x="164" y="377" width="130" as="geometry" />
        </mxCell>
        <mxCell id="7Xz_9-x67nZ5A4HUlt5y-71" value="" style="endArrow=classic;html=1;rounded=0;fontSize=14;" parent="2IGsuQoMTE90SmOeLrJ3-8" edge="1">
          <mxGeometry width="50" height="50" relative="1" as="geometry">
            <mxPoint x="130" as="sourcePoint" />
            <mxPoint as="targetPoint" />
          </mxGeometry>
        </mxCell>
        <mxCell id="7Xz_9-x67nZ5A4HUlt5y-72" value="\begin{bmatrix}&lt;br style=&quot;font-size: 14px;&quot;&gt;T_{sup}&lt;br style=&quot;font-size: 14px;&quot;&gt;\end{bmatrix}" style="edgeLabel;html=1;align=center;verticalAlign=middle;resizable=0;points=[];spacing=2;fontSize=14;horizontal=1;" parent="2IGsuQoMTE90SmOeLrJ3-8" vertex="1" connectable="0">
          <mxGeometry x="59.99750000000046" as="geometry" />
        </mxCell>
        <mxCell id="2IGsuQoMTE90SmOeLrJ3-9" value="" style="group;fontSize=14;" parent="a6acP2pozzWjvfzwrBKU-1" vertex="1" connectable="0">
          <mxGeometry x="923" y="517" width="0.9999999999998863" height="87" as="geometry" />
        </mxCell>
        <mxCell id="7Xz_9-x67nZ5A4HUlt5y-33" value="\begin{bmatrix}&lt;br style=&quot;font-size: 14px;&quot;&gt;\dot{m}_3&lt;br style=&quot;font-size: 14px;&quot;&gt;\end{bmatrix}" style="edgeLabel;html=1;align=center;verticalAlign=middle;resizable=0;points=[];spacing=2;fontSize=14;horizontal=1;" parent="2IGsuQoMTE90SmOeLrJ3-9" vertex="1" connectable="0">
          <mxGeometry x="0.9975000000004002" y="10.000000000000057" as="geometry" />
        </mxCell>
        <mxCell id="7Xz_9-x67nZ5A4HUlt5y-34" value="" style="endArrow=classic;html=1;rounded=0;fontSize=14;" parent="2IGsuQoMTE90SmOeLrJ3-9" edge="1">
          <mxGeometry width="50" height="50" relative="1" as="geometry">
            <mxPoint x="1" y="-50" as="sourcePoint" />
            <mxPoint x="0.9999999999998863" as="targetPoint" />
          </mxGeometry>
        </mxCell>
        <mxCell id="7Xz_9-x67nZ5A4HUlt5y-35" value="" style="endArrow=classic;html=1;rounded=0;fontSize=14;" parent="2IGsuQoMTE90SmOeLrJ3-9" edge="1">
          <mxGeometry width="50" height="50" relative="1" as="geometry">
            <mxPoint y="20" as="sourcePoint" />
            <mxPoint x="0.15999999999985448" y="87" as="targetPoint" />
          </mxGeometry>
        </mxCell>
        <mxCell id="2IGsuQoMTE90SmOeLrJ3-11" value="" style="group;fontSize=14;" parent="a6acP2pozzWjvfzwrBKU-1" vertex="1" connectable="0">
          <mxGeometry x="971.92" y="517" width="0.9999999999998863" height="87" as="geometry" />
        </mxCell>
        <mxCell id="2IGsuQoMTE90SmOeLrJ3-12" value="\begin{bmatrix}&lt;br style=&quot;font-size: 14px;&quot;&gt;h_4&lt;br style=&quot;font-size: 14px;&quot;&gt;\end{bmatrix}" style="edgeLabel;html=1;align=center;verticalAlign=middle;resizable=0;points=[];spacing=2;fontSize=14;horizontal=1;" parent="2IGsuQoMTE90SmOeLrJ3-11" vertex="1" connectable="0">
          <mxGeometry x="0.9975000000004002" y="10.000000000000057" as="geometry" />
        </mxCell>
        <mxCell id="2IGsuQoMTE90SmOeLrJ3-13" value="" style="endArrow=classic;html=1;rounded=0;fontSize=14;" parent="2IGsuQoMTE90SmOeLrJ3-11" edge="1">
          <mxGeometry width="50" height="50" relative="1" as="geometry">
            <mxPoint x="1" y="-50" as="sourcePoint" />
            <mxPoint x="0.9999999999998863" as="targetPoint" />
          </mxGeometry>
        </mxCell>
        <mxCell id="2IGsuQoMTE90SmOeLrJ3-14" value="" style="endArrow=classic;html=1;rounded=0;fontSize=14;" parent="2IGsuQoMTE90SmOeLrJ3-11" edge="1">
          <mxGeometry width="50" height="50" relative="1" as="geometry">
            <mxPoint y="20" as="sourcePoint" />
            <mxPoint x="0.15999999999985448" y="87" as="targetPoint" />
          </mxGeometry>
        </mxCell>
        <mxCell id="2IGsuQoMTE90SmOeLrJ3-15" value="" style="group;fontSize=14;" parent="a6acP2pozzWjvfzwrBKU-1" vertex="1" connectable="0">
          <mxGeometry x="753.5" y="651" width="68.00000000000034" as="geometry" />
        </mxCell>
        <mxCell id="7Xz_9-x67nZ5A4HUlt5y-48" value="\begin{bmatrix}&lt;br style=&quot;font-size: 14px;&quot;&gt;\dot{m}_3&lt;br style=&quot;font-size: 14px;&quot;&gt;\end{bmatrix}" style="edgeLabel;html=1;align=center;verticalAlign=middle;resizable=0;points=[];spacing=2;fontSize=14;horizontal=1;" parent="2IGsuQoMTE90SmOeLrJ3-15" vertex="1" connectable="0">
          <mxGeometry x="93.00000000000034" y="-5" as="geometry">
            <mxPoint x="-25" y="5" as="offset" />
          </mxGeometry>
        </mxCell>
        <mxCell id="7Xz_9-x67nZ5A4HUlt5y-51" value="" style="endArrow=classic;html=1;rounded=0;jumpStyle=arc;jumpSize=10;fontSize=14;" parent="2IGsuQoMTE90SmOeLrJ3-15" edge="1">
          <mxGeometry width="50" height="50" relative="1" as="geometry">
            <mxPoint x="50" as="sourcePoint" />
            <mxPoint as="targetPoint" />
          </mxGeometry>
        </mxCell>
        <mxCell id="2IGsuQoMTE90SmOeLrJ3-16" value="" style="group;fontSize=14;" parent="a6acP2pozzWjvfzwrBKU-1" vertex="1" connectable="0">
          <mxGeometry x="753.5" y="617" width="140" as="geometry" />
        </mxCell>
        <mxCell id="7Xz_9-x67nZ5A4HUlt5y-20" value="\begin{bmatrix}&lt;br style=&quot;font-size: 14px;&quot;&gt;p_1&lt;br style=&quot;font-size: 14px;&quot;&gt;\end{bmatrix}" style="edgeLabel;html=1;align=center;verticalAlign=middle;resizable=0;points=[];spacing=2;fontSize=14;horizontal=1;" parent="2IGsuQoMTE90SmOeLrJ3-16" vertex="1" connectable="0">
          <mxGeometry x="90.00000000000034" y="-5" as="geometry">
            <mxPoint x="-25" y="5" as="offset" />
          </mxGeometry>
        </mxCell>
        <mxCell id="7Xz_9-x67nZ5A4HUlt5y-21" value="" style="endArrow=classic;html=1;rounded=0;jumpStyle=arc;jumpSize=10;fontSize=14;" parent="2IGsuQoMTE90SmOeLrJ3-16" edge="1">
          <mxGeometry width="50" height="50" relative="1" as="geometry">
            <mxPoint x="140" as="sourcePoint" />
            <mxPoint x="80" as="targetPoint" />
          </mxGeometry>
        </mxCell>
        <mxCell id="7Xz_9-x67nZ5A4HUlt5y-47" value="" style="endArrow=classic;html=1;rounded=0;jumpStyle=arc;jumpSize=10;fontSize=14;" parent="2IGsuQoMTE90SmOeLrJ3-16" edge="1">
          <mxGeometry width="50" height="50" relative="1" as="geometry">
            <mxPoint x="30" as="sourcePoint" />
            <mxPoint as="targetPoint" />
          </mxGeometry>
        </mxCell>
        <mxCell id="2IGsuQoMTE90SmOeLrJ3-19" value="&lt;span style=&quot;color: rgb(0, 0, 0); font-family: helvetica; font-style: normal; font-weight: normal; letter-spacing: normal; text-align: center; text-indent: 0px; text-transform: none; word-spacing: 0px; background-color: rgb(248, 249, 250); text-decoration: none; display: inline; float: none; font-size: 14px;&quot;&gt;&lt;font style=&quot;font-size: 14px;&quot;&gt;\begin{bmatrix} M \end{bmatrix}&lt;/font&gt;&lt;/span&gt;" style="text;whiteSpace=wrap;html=1;fontSize=14;" parent="a6acP2pozzWjvfzwrBKU-1" vertex="1">
          <mxGeometry x="656.5" y="149.5" width="30" height="32.5" as="geometry" />
        </mxCell>
        <mxCell id="2IGsuQoMTE90SmOeLrJ3-21" value="&lt;span style=&quot;color: rgb(0, 0, 0); font-family: helvetica; font-style: normal; font-weight: normal; letter-spacing: normal; text-align: center; text-indent: 0px; text-transform: none; word-spacing: 0px; background-color: rgb(248, 249, 250); text-decoration: none; display: inline; float: none; font-size: 14px;&quot;&gt;&lt;font style=&quot;font-size: 14px;&quot;&gt;\begin{bmatrix} M, Tm, \dot{m}_{air}&amp;nbsp;&lt;br style=&quot;font-size: 14px;&quot;&gt;\end{bmatrix}&lt;/font&gt;&lt;/span&gt;" style="text;whiteSpace=wrap;html=1;fontSize=14;" parent="a6acP2pozzWjvfzwrBKU-1" vertex="1">
          <mxGeometry x="918.4" y="393" width="80" height="57" as="geometry" />
        </mxCell>
        <mxCell id="2IGsuQoMTE90SmOeLrJ3-22" value="&lt;span style=&quot;color: rgb(0, 0, 0); font-family: helvetica; font-style: normal; font-weight: normal; letter-spacing: normal; text-align: center; text-indent: 0px; text-transform: none; word-spacing: 0px; background-color: rgb(248, 249, 250); text-decoration: none; display: inline; float: none; font-size: 14px;&quot;&gt;&lt;font style=&quot;font-size: 14px;&quot;&gt;\begin{bmatrix} T_{mlv}, T_{mv}, M_{lv}, M_v&amp;nbsp;\end{bmatrix}&lt;/font&gt;&lt;/span&gt;" style="text;whiteSpace=wrap;html=1;fontSize=14;" parent="a6acP2pozzWjvfzwrBKU-1" vertex="1">
          <mxGeometry x="295.5" y="396" width="80" height="57" as="geometry" />
        </mxCell>
        <mxCell id="2IGsuQoMTE90SmOeLrJ3-23" value="&lt;span style=&quot;color: rgb(0, 0, 0); font-family: helvetica; font-style: normal; font-weight: normal; letter-spacing: normal; text-align: center; text-indent: 0px; text-transform: none; word-spacing: 0px; background-color: rgb(248, 249, 250); text-decoration: none; display: inline; float: none; font-size: 14px;&quot;&gt;&lt;font style=&quot;font-size: 14px;&quot;&gt;\begin{bmatrix} T_{air}, T_{box}, T_{cargo} \end{bmatrix}&lt;/font&gt;&lt;/span&gt;" style="text;whiteSpace=wrap;html=1;fontSize=14;" parent="a6acP2pozzWjvfzwrBKU-1" vertex="1">
          <mxGeometry x="14" y="397" width="80" height="57" as="geometry" />
        </mxCell>
        <mxCell id="2IGsuQoMTE90SmOeLrJ3-24" value="" style="endArrow=classic;html=1;rounded=0;jumpStyle=arc;jumpSize=10;fontSize=14;" parent="a6acP2pozzWjvfzwrBKU-1" edge="1">
          <mxGeometry width="50" height="50" relative="1" as="geometry">
            <mxPoint x="494" y="689" as="sourcePoint" />
            <mxPoint x="404" y="527" as="targetPoint" />
            <Array as="points">
              <mxPoint x="494" y="557" />
              <mxPoint x="404" y="557" />
            </Array>
          </mxGeometry>
        </mxCell>
        <mxCell id="7Xz_9-x67nZ5A4HUlt5y-9" value="" style="endArrow=classic;html=1;rounded=0;fontSize=14;" parent="a6acP2pozzWjvfzwrBKU-1" edge="1">
          <mxGeometry width="50" height="50" relative="1" as="geometry">
            <mxPoint x="895" y="121" as="sourcePoint" />
            <mxPoint x="835" y="121" as="targetPoint" />
          </mxGeometry>
        </mxCell>
        <mxCell id="Ts8d3kT2Q9nHjdVAwo6N-0" value="" style="endArrow=classic;html=1;rounded=0;fontSize=14;" parent="a6acP2pozzWjvfzwrBKU-1" edge="1">
          <mxGeometry width="50" height="50" relative="1" as="geometry">
            <mxPoint x="842.5" y="160" as="sourcePoint" />
            <mxPoint x="892.5" y="160" as="targetPoint" />
          </mxGeometry>
        </mxCell>
        <mxCell id="_1J4qGqYoD8-jGC9lADO-0" value="" style="group;fontSize=14;" parent="a6acP2pozzWjvfzwrBKU-1" vertex="1" connectable="0">
          <mxGeometry x="750" y="687" width="68.00000000000034" as="geometry" />
        </mxCell>
        <mxCell id="_1J4qGqYoD8-jGC9lADO-1" value="\begin{bmatrix}&lt;br style=&quot;font-size: 14px;&quot;&gt;h_4&lt;br style=&quot;font-size: 14px;&quot;&gt;\end{bmatrix}" style="edgeLabel;html=1;align=center;verticalAlign=middle;resizable=0;points=[];spacing=2;fontSize=14;horizontal=1;" parent="_1J4qGqYoD8-jGC9lADO-0" vertex="1" connectable="0">
          <mxGeometry x="93.00000000000034" y="-5" as="geometry">
            <mxPoint x="-25" y="5" as="offset" />
          </mxGeometry>
        </mxCell>
        <mxCell id="_1J4qGqYoD8-jGC9lADO-2" value="" style="endArrow=classic;html=1;rounded=0;jumpStyle=arc;jumpSize=10;fontSize=14;" parent="_1J4qGqYoD8-jGC9lADO-0" edge="1">
          <mxGeometry width="50" height="50" relative="1" as="geometry">
            <mxPoint x="50" as="sourcePoint" />
            <mxPoint as="targetPoint" />
          </mxGeometry>
        </mxCell>
        <mxCell id="_1J4qGqYoD8-jGC9lADO-3" value="" style="endArrow=classic;html=1;rounded=0;jumpStyle=arc;jumpSize=10;fontSize=14;" parent="a6acP2pozzWjvfzwrBKU-1" edge="1">
          <mxGeometry width="50" height="50" relative="1" as="geometry">
            <mxPoint x="972" y="577" as="sourcePoint" />
            <mxPoint x="835.4" y="687" as="targetPoint" />
            <Array as="points">
              <mxPoint x="880" y="577" />
              <mxPoint x="880" y="617" />
              <mxPoint x="880" y="687" />
            </Array>
          </mxGeometry>
        </mxCell>
        <mxCell id="_1J4qGqYoD8-jGC9lADO-4" value="" style="endArrow=classic;html=1;rounded=0;fontSize=14;" parent="a6acP2pozzWjvfzwrBKU-1" edge="1">
          <mxGeometry width="50" height="50" relative="1" as="geometry">
            <mxPoint x="724" y="237" as="sourcePoint" />
            <mxPoint x="724" y="211" as="targetPoint" />
          </mxGeometry>
        </mxCell>
        <mxCell id="_1J4qGqYoD8-jGC9lADO-9" value="" style="endArrow=classic;html=1;rounded=0;fontSize=14;" parent="a6acP2pozzWjvfzwrBKU-1" edge="1">
          <mxGeometry width="50" height="50" relative="1" as="geometry">
            <mxPoint x="796" y="617" as="sourcePoint" />
            <mxPoint x="723" y="407" as="targetPoint" />
            <Array as="points">
              <mxPoint x="780" y="617" />
              <mxPoint x="780" y="586" />
              <mxPoint x="723" y="586" />
            </Array>
          </mxGeometry>
        </mxCell>
        <mxCell id="7Xz_9-x67nZ5A4HUlt5y-42" value="\begin{bmatrix}&lt;br style=&quot;font-size: 14px;&quot;&gt;p_3&lt;br style=&quot;font-size: 14px;&quot;&gt;\end{bmatrix}" style="edgeLabel;html=1;align=center;verticalAlign=middle;resizable=0;points=[];spacing=2;fontSize=14;horizontal=1;fontColor=#000000;" parent="a6acP2pozzWjvfzwrBKU-1" vertex="1" connectable="0">
          <mxGeometry x="1029.9975000000004" y="530" as="geometry">
            <mxPoint x="-6" y="-4" as="offset" />
          </mxGeometry>
        </mxCell>
        <mxCell id="7Xz_9-x67nZ5A4HUlt5y-43" value="" style="endArrow=classic;html=1;rounded=0;fontSize=14;" parent="a6acP2pozzWjvfzwrBKU-1" edge="1">
          <mxGeometry width="50" height="50" relative="1" as="geometry">
            <mxPoint x="1024" y="537" as="sourcePoint" />
            <mxPoint x="1024" y="604" as="targetPoint" />
          </mxGeometry>
        </mxCell>
        <mxCell id="7Xz_9-x67nZ5A4HUlt5y-44" value="" style="endArrow=classic;html=1;rounded=0;fontSize=14;" parent="a6acP2pozzWjvfzwrBKU-1" edge="1">
          <mxGeometry width="50" height="50" relative="1" as="geometry">
            <mxPoint x="1024" y="467" as="sourcePoint" />
            <mxPoint x="1024" y="517" as="targetPoint" />
          </mxGeometry>
        </mxCell>
        <mxCell id="Na1JPXhOpcZtYNCs6wXy-10" value="" style="endArrow=none;html=1;rounded=0;fontSize=14;dashed=1;dashPattern=1 1;endFill=0;" edge="1" parent="a6acP2pozzWjvfzwrBKU-1">
          <mxGeometry width="50" height="50" relative="1" as="geometry">
            <mxPoint x="672.36" y="73" as="sourcePoint" />
            <mxPoint x="672.36" y="83" as="targetPoint" />
            <Array as="points">
              <mxPoint x="672.3575000000003" y="83" />
            </Array>
          </mxGeometry>
        </mxCell>
      </root>
    </mxGraphModel>
  </diagram>
</mxfile>
